<svg width="23" height="22" viewBox="0 0 23 22" fill="none" xmlns="http://www.w3.org/2000/svg">
<path d="M19.55 21H3.45C2.81487 21 2.3 20.4941 2.3 19.8701V10.8312H0L10.6858 0.331374C10.9015 0.119212 11.1942 0 11.4994 0C11.8046 0 12.0973 0.119212 12.313 0.331374L23 10.8312H20.7V19.8701C20.7 20.4941 20.1851 21 19.55 21ZM9.2 13.0909H13.8V18.7403H18.4V9.50701L11.5 2.72782L4.6 9.50701V18.7403H9.2V13.0909Z" fill="#3E3D46"/>
<path d="M11.5 2.5L4.5 9.5V19H18.5V9.5L11.5 2.5Z" fill="#3E3D46" stroke="#3E3D46"/>
<path d="M9 14V19V21H14V14H9Z" fill="white" stroke="white"/>
</svg>
