<svg width="74" height="74" viewBox="0 0 74 74" fill="none" xmlns="http://www.w3.org/2000/svg">
<path d="M37 74C16.6 74 0 57.4 0 37C0 16.6 16.6 0 37 0C57.4 0 74 16.6 74 37C74 57.4 57.4 74 37 74ZM37 2C17.7 2 2 17.7 2 37C2 56.3 17.7 72 37 72C56.3 72 72 56.3 72 37C72 17.7 56.3 2 37 2Z" fill="#3E3D46"/>
<path d="M59.8 42.4L44.6 29.8C44.3 29.6 44 29.4 43.7 29.3V40.8C43.7 42.5 42.4 43.8 40.7 43.8H29.1L27.8 45.4C26.7 46.7 26.9 48.6 28.2 49.6L43.4 62.2C44.7 63.3 46.6 63.1 47.6 61.8L60.2 46.6C61.3 45.3 61.1 43.5 59.8 42.4ZM36.1 48.7C35.2 49.8 33.6 49.9 32.5 49C31.4 48.1 31.3 46.5 32.2 45.4C33.1 44.3 34.7 44.2 35.8 45.1C36.9 45.9 37 47.6 36.1 48.7ZM55.8 46.8C54.9 47.9 53.3 48 52.2 47.1C51.1 46.2 51 44.6 51.9 43.5C52.8 42.4 54.4 42.3 55.5 43.2C56.6 44.1 56.7 45.7 55.8 46.8Z" fill="#3E3D46"/>
<path d="M39.4 16.6H19.6C17.9 16.6 16.6 17.9 16.6 19.6V39.4C16.6 41.1 17.9 42.4 19.6 42.4H39.4C41.1 42.4 42.4 41.1 42.4 39.4V19.6C42.4 18 41 16.6 39.4 16.6ZM22.6 39.2C21.2 39.2 20 38 20 36.6C20 35.2 21.2 34 22.6 34C24 34 25.2 35.2 25.2 36.6C25.2 38 24 39.2 22.6 39.2ZM22.6 25.2C21.2 25.2 20 24 20 22.6C20 21.2 21.2 20 22.6 20C24 20 25.2 21.2 25.2 22.6C25.2 24 24 25.2 22.6 25.2ZM29.6 32.2C28.2 32.2 27 31 27 29.6C27 28.2 28.2 27 29.6 27C31 27 32.2 28.2 32.2 29.6C32.2 31 31 32.2 29.6 32.2ZM36.6 39.2C35.2 39.2 34 38 34 36.6C34 35.2 35.2 34 36.6 34C38 34 39.2 35.2 39.2 36.6C39.2 38 38 39.2 36.6 39.2ZM36.6 25.2C35.2 25.2 34 24 34 22.6C34 21.2 35.2 20 36.6 20C38 20 39.2 21.2 39.2 22.6C39.2 24 38 25.2 36.6 25.2Z" fill="#3E3D46"/>
</svg>
