<svg width="414" height="685" viewBox="0 0 414 685" fill="none" xmlns="http://www.w3.org/2000/svg">
<path d="M463.79 474.297C469.525 471.377 475.323 467.928 477.902 463.337C480.635 458.484 479.219 453.381 477.635 448.677C463.872 407.882 440.23 366.222 459.035 323.276C468.165 302.439 486.51 283.627 500.146 263.68C513.782 243.732 522.496 220.42 510.907 202.25C496.752 180.047 458.562 173.553 430.996 159.662C412.956 150.583 399.116 138.002 382.007 128.092C364.899 118.183 342.649 110.828 319.087 114.57C285.198 119.945 261.682 145.482 229.559 156.511C196.649 167.807 160.236 162.094 129.995 152.697C99.7534 143.3 71.3991 130.328 37.6836 127.305C0.447181 123.957 -39.0465 133.131 -77.3698 134.178C-112.263 135.124 -145.665 129.316 -180.456 129.476C-215.247 129.635 -254.542 137.561 -277.49 158.586C-307.386 186.061 -297.557 222.907 -313.901 254.803C-329.08 284.436 -365.517 307.375 -387.66 335.245C-427.501 385.404 -413.925 447.794 -364.871 484.638C-315.816 521.481 -237.271 534.427 -160.9 527.08C-126.462 523.76 -91.7069 516.65 -57.8006 517.619C32.9537 520.2 97.997 579.31 189.635 576.639C247.882 574.927 299.804 548.605 344.205 519.948C382.745 495.071 422.727 495.208 463.79 474.297Z" fill="#4B4E62"/>
</svg>
