<svg width="414" height="641" viewBox="0 0 414 641" fill="none" xmlns="http://www.w3.org/2000/svg">
<path d="M506.835 575.844C512.927 574.585 519.231 572.806 522.921 568.904C526.828 564.783 527.013 559.167 526.928 553.908C526.17 508.289 516.627 458.84 546.282 420.755C560.675 402.279 582.911 388.615 601.168 372.389C619.425 356.163 634.156 335.044 628.825 313.096C622.317 286.277 589.268 268.267 568.083 245.902C554.215 231.278 545.204 214.344 532.429 199.153C519.655 183.962 501.436 169.835 478.799 166.608C446.243 161.958 417.328 180.923 384.747 182.554C351.369 184.222 319.72 167.537 294.784 148.947C269.848 130.356 247.675 108.691 217.713 95.5486C184.624 81.0254 145.84 78.5684 110.483 68.1917C78.2925 58.737 49.4251 42.8546 17.5563 32.6292C-14.3125 22.4038 -52.5526 18.7368 -79.6403 33.2796C-114.953 52.3092 -116.648 92.7365 -140.847 120.311C-163.325 145.932 -203.305 158.394 -231.641 180.142C-282.629 219.285 -288.304 286.822 -254.12 338.957C-219.935 391.092 -151.846 427.716 -79.8611 443.041C-47.3982 449.946 -13.5471 453.088 17.1853 464.197C99.4475 493.919 141.799 573.485 226.393 598.127C280.166 613.774 335.292 602.494 384.215 586.591C426.68 572.784 463.212 584.861 506.835 575.844Z" fill="#7C8CA1"/>
</svg>
