<svg width="414" height="708" viewBox="0 0 414 708" fill="none" xmlns="http://www.w3.org/2000/svg">
<path opacity="0.5" d="M-26.0591 633.647C-22.8174 636.634 -18.8702 639.553 -12.9899 640.235C-6.77669 640.96 0.279842 639.047 6.8185 637.111C63.5246 620.298 122.599 597.15 178.247 600.211C205.245 601.7 228.39 609.343 253.641 613.821C278.891 618.299 309.278 619.029 335.199 608.137C366.874 594.831 380.279 569.707 402.372 549.716C416.813 536.636 435.469 525.467 450.918 512.8C466.367 500.133 478.995 484.775 476.813 470.838C473.685 450.791 442.096 441.28 431.125 423.475C419.891 405.234 432.027 381.376 448.382 360.623C464.737 339.87 485.686 319.573 493.865 297.94C502.91 274.046 495.339 251.271 498.588 227.586C501.556 206.019 513.454 184.02 517.471 162.358C521.489 140.696 515.576 117.794 490.004 107.726C456.579 94.628 405.677 108.192 364.638 104.436C326.509 100.95 299.997 82.858 265.094 74.6741C202.276 59.9515 116.46 81.0051 60.7919 119.026C5.12348 157.048 -21.8955 208.636 -21.2735 254.774C-20.9851 275.579 -15.6212 295.815 -21.0521 317.153C-35.5739 374.263 -123.225 426.747 -130.769 483.348C-135.544 519.322 -106.353 546.387 -73.0949 568.291C-44.2238 587.303 -49.2719 612.261 -26.0591 633.647Z" fill="#CCCCCC"/>
</svg>
